HIERARCHY
ROOT Hips
{
	OFFSET	0.00	0.00	0.00
	CHANNELS 6 Xposition Yposition Zposition Zrotation Xrotation Yrotation
	JOINT Spine
	{
		OFFSET	 0.00	0.01	 0.00
		CHANNELS 3 Zrotation Xrotation Yrotation
		JOINT Spine1
		{
			OFFSET	 0.00	 2.45913012437421	 0.00
			CHANNELS 3 Zrotation Xrotation Yrotation
            JOINT Neck
            {
                OFFSET	 0.00	 2.48462964506057	 0.00
                CHANNELS 3 Zrotation Xrotation Yrotation
                JOINT Head
                {
                    OFFSET	 0.00	 0.927524780924562	 0.00
                    CHANNELS 3 Zrotation Xrotation Yrotation
                    End Site 
                    {
                        OFFSET	 0.00	 1.14999962169752	 0.00
                    }
                }
            }
			JOINT LeftShoulder
			{
				OFFSET	 0.00	 2.48462964506057	 0.00
				CHANNELS 3 Zrotation Xrotation Yrotation
				JOINT LeftUpArm
				{
					OFFSET	 0.00	 1.24881979654096	 0.00
					CHANNELS 3 Zrotation Xrotation Yrotation
					JOINT LeftForeArm
					{
						OFFSET	 0.00	2.59758046908119	 0.00
						CHANNELS 3 Zrotation Xrotation Yrotation
						JOINT LeftHand
						{
							OFFSET	 0.00	2.45542024364365	 0.00
							CHANNELS 3 Zrotation Xrotation Yrotation
							JOINT LeftHandThumb 
							{
								OFFSET	 0.00	0.00	 0.00
								CHANNELS 3 Zrotation Xrotation Yrotation
								End Site
								{
									OFFSET	 0.00	0.00	1.00000003353624
								}
							}
							JOINT L_Wrist_End 
							{
								OFFSET	 0.00	0.99999967115358	 0.00
								CHANNELS 3 Zrotation Xrotation Yrotation
								End Site 
								{
									OFFSET	 0.00	 0.00	 0.00
								}
							}
						}
					}
				}
			}
			JOINT RightShoulder
			{
				OFFSET	 0.00	 2.48462964506057	 0.00
				CHANNELS 3 Zrotation Xrotation Yrotation
				JOINT RightUpArm
				{
					OFFSET	 0.00	 1.24881979654096	 0.00
					CHANNELS 3 Zrotation Xrotation Yrotation
					JOINT RightForeArm
					{
						OFFSET	 0.00	2.59758046908119	 0.00
						CHANNELS 3 Zrotation Xrotation Yrotation
						JOINT RightHand
						{
							OFFSET	 0.00	2.45542024364365	 0.00
							CHANNELS 3 Zrotation Xrotation Yrotation
							JOINT RightHandThumb 
							{
								OFFSET	 0.00	0.00	 0.00
								CHANNELS 3 Zrotation Xrotation Yrotation
								End Site
								{
									OFFSET	 0.00	0.00	1.00000003353624
								}
							}
							JOINT R_Wrist_End 
							{
								OFFSET	 0.00	0.99999967115358	 0.00
								CHANNELS 3 Zrotation Xrotation Yrotation
								End Site 
								{
									OFFSET	 0.00	 0.00	 0.00
								}
							}
						}
					}
				}
			}
		}
	}
	JOINT LeftUpLeg
	{
		OFFSET	 1.2719394002717	 0.00	 0.00
		CHANNELS 3 Zrotation Xrotation Yrotation
		JOINT LeftLowLeg
		{
			OFFSET	 0.00	-4.3429100912261	 0.00
			CHANNELS 3 Zrotation Xrotation Yrotation
			JOINT LeftFoot
			{
				OFFSET	 0.00	-4.48767017425826	 0.00
				CHANNELS 3 Zrotation Xrotation Yrotation
				JOINT LeftToeBase
                {
                    OFFSET	 0.00	0.00	 1.51507020887566
                    CHANNELS 3 Zrotation Xrotation Yrotation
                    End Site 
                    {
                        OFFSET	 0.00	0.00	 0.75000010571191
                    }
                }
			}
		}
	}
	JOINT RightUpLeg
	{
		OFFSET	 -1.2719393604653	 0.00	 0.00
		CHANNELS 3 Zrotation Xrotation Yrotation
		JOINT RightLowLeg
		{
			OFFSET	 0.00	-4.3429100912261	 0.00
			CHANNELS 3 Zrotation Xrotation Yrotation
			JOINT RightFoot
			{
				OFFSET	 0.00	-4.48767017425826	 0.00
				CHANNELS 3 Zrotation Xrotation Yrotation
				JOINT RightToeBase
                {
                    OFFSET	 0.00	0.00	 1.51507020887566
                    CHANNELS 3 Zrotation Xrotation Yrotation
                    End Site 
                    {
                        OFFSET	 0.00	0.00	 0.749999965609858
                    }
                }   
			}
		}
	}
}
MOTION 
Frames:	15 
Frame Time: 0.02 
  -0.37683399200439455 -0.11104499816894531 1.3509300231933594 -21.0103 56.3561 17.2557 9.0476 30.4158 5.47291 22.0023 32.6962 -21.4274 -27.9482 -3.96064 63.7149 -104.273 -34.5075 631.367 -109.6299 6.85695 6.2631 70.4924 69.5332 -384.773 0.0 88.9065 0.0 23.8755 -9.25249 11.3842 0.0 0.0 0.0 0.0 0.0 0.0 115.0035 13.4532 -10.1903 15.576 57.6667 -364.83 0.0 54.1726 0.0 5.36391 -11.9735 -27.0916 0.0 0.0 0.0 0.0 0.0 0.0 -128.25 -77.6668 -451.439 0.0 117.949 0.0 8.45672 12.07095 25.8735 0.0 -13.44867 0.0 16.7252 -46.5734 364.493 0.0 -5.90961 0.0 34.9929 21.97638 -23.649 0.0 -22.91025 0.0 
  -0.3767470169067383 -0.11151800155639649 1.3510899353027344 -21.0168 56.3615 17.2675 9.0128 30.4053 5.51001 22.0271 32.7137 -21.4256 -27.983 -4.04866 63.7044 -104.215 -34.4627 631.374 -109.6928 6.84618 6.36191 70.8146 69.4239 -385.059 0.0 88.8937 0.0 23.7312 -9.17982 11.3335 0.0 0.0 0.0 0.0 0.0 0.0 115.0044 13.4176 -10.1974 15.485 57.6905 -364.817 0.0 54.1716 0.0 5.26114 -11.9338 -27.0562 0.0 0.0 0.0 0.0 0.0 0.0 -128.227 -77.6933 -451.397 0.0 117.937 0.0 8.56002 12.089251 25.8616 0.0 -13.4789295 0.0 16.7218 -46.5915 364.534 0.0 -5.8859 0.0 35.001 21.943981 -23.6581 0.0 -22.92062 0.0 
  -0.3768669891357422 -0.11180000305175782 1.3512899780273437 -21.0305 56.3762 17.2965 8.98291 30.385 5.54958 22.0546 32.7594 -21.429 -27.9369 -4.17948 63.6928 -104.128 -34.4321 631.497 -109.7788 6.8112 6.53859 71.3542 69.2118 -385.5 0.0 88.8811 0.0 23.7488 -9.30142 11.3886 0.0 0.0 0.0 0.0 0.0 0.0 115.0171 13.3697 -10.1916 15.3463 57.7374 -364.762 0.0 54.1688 0.0 5.20989 -11.9216 -26.9901 0.0 0.0 0.0 0.0 0.0 0.0 -128.257 -77.7037 -451.415 0.0 117.941 0.0 8.59682 12.09738 25.8376 0.0 -13.526649 0.0 16.7134 -46.6297 364.586 0.0 -5.84024 0.0 34.9969 21.88442 -23.6535 0.0 -22.90895 0.0 
  -0.37734901428222656 -0.11385000228881836 1.3507899475097656 -20.9334 56.3633 17.2711 8.93929 30.3476 5.56492 22.0978 32.8239 -21.4958 -27.826 -4.24301 63.6731 -104.057 -34.4247 631.634 -109.780304 6.78281 6.64221 71.6328 69.1117 -385.79 0.0 88.8391 0.0 24.0514 -9.66202 10.476 0.0 0.0 0.0 0.0 0.0 0.0 115.0206 13.3531 -10.1973 15.2649 57.7705 -364.701 0.0 54.15 0.0 5.18135 -11.9139 -26.9512 0.0 0.0 0.0 0.0 0.0 0.0 -128.105 -77.6959 -451.195 0.0 117.951 0.0 8.60608 12.09507 25.8382 0.0 -13.4669 0.0 16.577 -46.7999 365.131 0.0 -5.44163 0.0 35.3575 21.10971 -23.908 0.0 -22.77503 0.0 
  -0.37689800262451173 -0.11493100166320801 1.3509599304199218 -20.9788 56.4551 17.3479 8.89398 30.2121 5.58754 22.1811 32.8858 -21.5203 -27.8 -4.31575 63.6491 -103.99 -34.4046 631.721 -109.8031 6.74889 6.72742 71.8521 69.0233 -386.124 0.0 88.7371 0.0 23.6459 -9.57471 10.3504 0.0 0.0 0.0 0.0 0.0 0.0 114.9948 13.3609 -10.1923 15.1424 57.7813 -364.607 0.0 54.138 0.0 5.18703 -11.944 -26.7767 0.0 0.0 0.0 0.0 0.0 0.0 -128.368 -77.6213 -451.44 0.0 117.964 0.0 8.61484 12.0968 25.8029 0.0 -13.52944 0.0 16.5324 -46.9712 365.467 0.0 -5.26544 0.0 35.6011 20.69506 -24.0313 0.0 -22.73982 0.0 
  -0.4660359954833984 -0.19039400100708007 1.380019989013672 -20.9959 57.7278 20.2297 6.9028 26.4423 5.24128 27.0508 34.4279 -24.3239 -28.4122 -4.87761 63.6591 -104.021 -34.1938 631.609 -110.2788 6.82701 6.24685 71.6923 69.0141 -386.003 0.0 88.7265 0.0 23.6056 -9.67126 10.123 0.0 0.0 0.0 0.0 0.0 0.0 114.625 13.6447 -9.79081 14.9583 57.763 -364.538 0.0 54.1316 0.0 5.19671 -11.9826 -26.6952 0.0 0.0 0.0 0.0 0.0 0.0 -129.058 -75.3695 -451.809 0.0 119.111 0.0 8.83054 11.95088 25.0677 0.0 -13.53442 0.0 13.5985 -50.4633 385.859 0.0 -0.0159307 0.0 46.2873 -3.3519993 -33.3424 0.0 -20.0433 0.0 
  -0.46453399658203126 -0.1903580093383789 1.3798800659179689 -21.0789 57.7632 20.3153 6.93811 26.4143 5.2237 27.0236 34.4015 -24.2801 -28.438 -4.7735 63.6486 -104.134 -34.2384 631.583 -110.229095 6.866 6.10089 71.2675 69.2009 -385.719 0.0 88.6744 0.0 23.6124 -9.80917 9.92947 0.0 0.0 0.0 0.0 0.0 0.0 114.6741 13.668 -9.8369 14.7545 57.7401 -364.439 0.0 54.1047 0.0 5.20966 -12.0263 -26.5166 0.0 0.0 0.0 0.0 0.0 0.0 -129.148 -75.3302 -451.909 0.0 119.102 0.0 8.86741 11.9882 25.0807 0.0 -13.57989 0.0 13.6013 -50.4957 386.574 0.0 -0.0301352 0.0 46.3736 -3.9456005 -33.8409 0.0 -19.91724 0.0 
  -0.42768699645996094 -0.1577649974822998 1.3652699279785157 -21.1255 57.3938 19.1346 7.68995 27.8891 5.46819 24.9162 33.6451 -23.0066 -28.1968 -4.33016 63.6606 -104.289 -34.3974 631.499 -109.9044 6.88321 6.12983 70.6226 69.4845 -385.271 0.0 88.6007 0.0 23.4713 -9.70431 10.1422 0.0 0.0 0.0 0.0 0.0 0.0 114.86 13.6186 -10.127 14.6659 57.6601 -364.341 0.0 54.1016 0.0 5.16721 -12.097 -26.3099 0.0 0.0 0.0 0.0 0.0 0.0 -129.498 -76.2053 -452.398 0.0 118.678 0.0 8.61489 11.796431 25.2701 0.0 -13.33096 0.0 14.596 -49.4611 381.769 0.0 -1.69014 0.0 43.5617 3.1576004 -32.8965 0.0 -20.12635 0.0 
  -0.3832350158691406 -0.10635299682617187 1.3520599365234376 -21.3966 56.514 17.5626 8.58282 30.4108 5.9368 22.416 32.5454 -21.2967 -27.9847 -4.0661 63.6808 -104.273 -34.5099 631.498 -109.7041 6.83837 6.23029 70.6075 69.6339 -385.287 0.0 88.5672 0.0 23.3698 -9.68274 10.0197 0.0 0.0 0.0 0.0 0.0 0.0 115.0095 13.4725 -10.3125 14.7164 57.6594 -364.427 0.0 54.0962 0.0 5.04073 -12.0925 -26.3609 0.0 0.0 0.0 0.0 0.0 0.0 -129.162 -77.8246 -452.488 0.0 118.154 0.0 8.44743 11.5277 25.4431 0.0 -13.00857 0.0 16.7865 -47.0708 366.851 0.0 -5.23545 0.0 36.024 20.37941 -25.0119 0.0 -22.47714 0.0 
  -0.383927001953125 -0.10611700057983399 1.3516900634765625 -21.3456 56.4111 17.5368 8.58089 30.5295 5.94187 22.4354 32.5282 -21.3023 -27.9849 -4.0719 63.6903 -104.246 -34.5143 631.501 -109.6962 6.82701 6.22313 70.6983 69.6445 -385.377 0.0 88.5658 0.0 23.3801 -9.69545 9.97309 0.0 0.0 0.0 0.0 0.0 0.0 115.0102 13.4495 -10.2804 14.7246 57.6709 -364.477 0.0 54.1013 0.0 5.07666 -12.1055 -26.3257 0.0 0.0 0.0 0.0 0.0 0.0 -128.799 -77.895 -452.12 0.0 118.201 0.0 8.39889 11.42261 25.3828 0.0 -12.82385 0.0 16.771 -46.9804 366.686 0.0 -5.21641 0.0 35.9597 20.43108 -24.9345 0.0 -22.49474 0.0 
  -0.38393699645996093 -0.10646699905395508 1.3526800537109376 -21.3558 56.4012 17.5571 8.56554 30.5294 5.96429 22.45 32.5675 -21.3146 -27.9816 -4.08906 63.708 -104.24 -34.4907 631.447 -109.7117 6.81562 6.23323 70.8924 69.6241 -385.584 0.0 88.5878 0.0 23.2577 -9.88838 9.8708 0.0 0.0 0.0 0.0 0.0 0.0 114.979996 13.4667 -10.2909 14.6673 57.6665 -364.471 0.0 54.1099 0.0 5.0235 -12.0927 -26.3797 0.0 0.0 0.0 0.0 0.0 0.0 -128.761 -77.9198 -452.067 0.0 118.158 0.0 8.48864 11.57172 25.4286 0.0 -13.02845 0.0 16.7655 -46.9555 366.685 0.0 -5.24094 0.0 35.9187 20.44822 -24.94 0.0 -22.50224 0.0 
  -0.38389598846435546 -0.10719900131225586 1.3528399658203125 -21.3654 56.3456 17.552 8.56948 30.5841 5.97807 22.43 32.5622 -21.3004 -27.9579 -4.02095 63.6911 -104.289 -34.5037 631.431 -109.751495 6.82506 6.29708 71.0062 69.5635 -385.679 0.0 88.6059 0.0 23.1734 -9.95204 9.74123 0.0 0.0 0.0 0.0 0.0 0.0 114.9804 13.4764 -10.3432 14.6108 57.6535 -364.415 0.0 54.1178 0.0 5.02177 -12.0954 -26.4618 0.0 0.0 0.0 0.0 0.0 0.0 -128.813 -77.9664 -452.091 0.0 118.097 0.0 8.61935 11.8992405 25.5481 0.0 -13.31207 0.0 16.7804 -46.8926 366.695 0.0 -5.2557 0.0 35.9149 20.46056 -24.9603 0.0 -22.46793 0.0 
  -0.38367198944091796 -0.10678600311279297 1.3526600646972655 -21.3118 56.3651 17.5076 8.54881 30.6085 6.00442 22.375 32.5317 -21.2867 -27.8686 -3.98161 63.6399 -104.28 -34.5053 631.501 -109.7752 6.82509 6.39738 71.2173 69.4687 -385.866 0.0 88.6317 0.0 23.06 -9.96869 9.65779 0.0 0.0 0.0 0.0 0.0 0.0 115.0141 13.4381 -10.3484 14.5512 57.6589 -364.471 0.0 54.119 0.0 4.86885 -12.0087 -26.6356 0.0 0.0 0.0 0.0 0.0 0.0 -128.609 -77.9824 -451.88 0.0 118.155 0.0 8.55505 11.5761 25.4222 0.0 -13.00589 0.0 16.7467 -46.9088 366.704 0.0 -5.25254 0.0 35.9366 20.45734 -24.9652 0.0 -22.45029 0.0 
  -0.38367198944091796 -0.10678600311279297 1.3526600646972655 -21.3118 56.3651 17.5076 8.54881 30.6085 6.00442 22.375 32.5317 -21.2867 -27.8686 -3.98161 63.6399 -104.28 -34.5053 631.501 -109.7752 6.82509 6.39738 71.2173 69.4687 -385.866 0.0 88.6317 0.0 23.06 -9.96869 9.65779 0.0 0.0 0.0 0.0 0.0 0.0 115.0141 13.4381 -10.3484 14.5512 57.6589 -364.471 0.0 54.119 0.0 4.86885 -12.0087 -26.6356 0.0 0.0 0.0 0.0 0.0 0.0 -128.609 -77.9824 -451.88 0.0 118.155 0.0 8.55505 11.5761 25.4222 0.0 -13.00589 0.0 16.7467 -46.9088 366.704 0.0 -5.25254 0.0 35.9366 20.45734 -24.9652 0.0 -22.45029 0.0 
  -0.38413200378417967 -0.10715200424194336 1.3531399536132813 -21.3503 56.3574 17.545 8.55209 30.6158 6.00102 22.3574 32.5303 -21.2916 -27.8337 -3.91728 63.6032 -104.306 -34.5282 631.543 -109.8273 6.82183 6.47337 71.288 69.3718 -385.921 0.0 88.6514 0.0 22.9375 -9.96813 9.50005 0.0 0.0 0.0 0.0 0.0 0.0 115.007095 13.4958 -10.3627 14.5702 57.592 -364.443 0.0 54.1803 0.0 4.92618 -12.0726 -26.4852 0.0 0.0 0.0 0.0 0.0 0.0 -128.528 -78.0012 -451.816 0.0 118.197 0.0 8.57783 11.47425 25.3778 0.0 -12.86806 0.0 16.7655 -46.9002 366.681 0.0 -5.25819 0.0 35.9422 20.46858 -24.972 0.0 -22.46593 0.0 
